<mxfile host="Electron" modified="2023-10-18T05:55:22.520Z" agent="Mozilla/5.0 (Windows NT 10.0; Win64; x64) AppleWebKit/537.36 (KHTML, like Gecko) draw.io/22.0.2 Chrome/114.0.5735.289 Electron/25.8.4 Safari/537.36" etag="ebddodOGl-5zBTw0w0MY" version="22.0.2" type="device">
  <diagram name="Page-1" id="Bxq7s0hs5Caayt5N7LNR">
    <mxGraphModel dx="1687" dy="984" grid="1" gridSize="10" guides="1" tooltips="1" connect="1" arrows="1" fold="1" page="1" pageScale="1" pageWidth="850" pageHeight="1100" background="none" math="0" shadow="0">
      <root>
        <mxCell id="0" />
        <mxCell id="1" parent="0" />
        <mxCell id="pFZr7VpKerrp3s3yPMJf-1" value="" style="whiteSpace=wrap;html=1;aspect=fixed;fillColor=#f5f5f5;fontColor=#333333;strokeColor=#666666;" parent="1" vertex="1">
          <mxGeometry x="320" y="80" width="160" height="160" as="geometry" />
        </mxCell>
        <mxCell id="pFZr7VpKerrp3s3yPMJf-2" value="" style="whiteSpace=wrap;html=1;aspect=fixed;fillColor=#f5f5f5;fontColor=#333333;strokeColor=#666666;labelBorderColor=#99FF99;" parent="1" vertex="1">
          <mxGeometry x="240" y="520" width="320" height="320" as="geometry" />
        </mxCell>
        <mxCell id="pFZr7VpKerrp3s3yPMJf-4" value="" style="html=1;points=[[0,0,0,0,5],[0,1,0,0,-5],[1,0,0,0,5],[1,1,0,0,-5]];perimeter=orthogonalPerimeter;outlineConnect=0;targetShapes=umlLifeline;portConstraint=eastwest;newEdgeStyle={&quot;curved&quot;:0,&quot;rounded&quot;:0};fontColor=#0A0A0A;fillColor=#0A0A0A;" parent="1" vertex="1">
          <mxGeometry x="390" y="240" width="20" height="80" as="geometry" />
        </mxCell>
        <mxCell id="pFZr7VpKerrp3s3yPMJf-9" value="" style="html=1;points=[[0,0,0,0,5],[0,1,0,0,-5],[1,0,0,0,5],[1,1,0,0,-5]];perimeter=orthogonalPerimeter;outlineConnect=0;targetShapes=umlLifeline;portConstraint=eastwest;newEdgeStyle={&quot;curved&quot;:0,&quot;rounded&quot;:0};direction=south;fillColor=#0050ef;fontColor=#ffffff;strokeColor=#001DBC;" parent="1" vertex="1">
          <mxGeometry x="320" y="140" width="160" height="100" as="geometry" />
        </mxCell>
        <mxCell id="pFZr7VpKerrp3s3yPMJf-10" value="" style="strokeWidth=2;html=1;shape=mxgraph.flowchart.annotation_2;align=left;labelPosition=right;pointerEvents=1;" parent="1" vertex="1">
          <mxGeometry x="240" y="80" width="50" height="160" as="geometry" />
        </mxCell>
        <mxCell id="pFZr7VpKerrp3s3yPMJf-11" value="" style="strokeWidth=2;html=1;shape=mxgraph.flowchart.annotation_2;align=left;labelPosition=right;pointerEvents=1;" parent="1" vertex="1">
          <mxGeometry x="160" y="520" width="50" height="320" as="geometry" />
        </mxCell>
        <mxCell id="pFZr7VpKerrp3s3yPMJf-12" value="3000L" style="text;html=1;align=center;verticalAlign=middle;whiteSpace=wrap;rounded=0;fillColor=none;fillStyle=hatch;gradientColor=default;strokeColor=none;fontStyle=1;fontSize=20;" parent="1" vertex="1">
          <mxGeometry x="80" y="660" width="70" height="40" as="geometry" />
        </mxCell>
        <mxCell id="pFZr7VpKerrp3s3yPMJf-13" value="1000L" style="text;html=1;align=center;verticalAlign=middle;whiteSpace=wrap;rounded=0;fillColor=none;fillStyle=hatch;gradientColor=default;strokeColor=none;fontStyle=1;fontSize=20;" parent="1" vertex="1">
          <mxGeometry x="170" y="140" width="60" height="45" as="geometry" />
        </mxCell>
        <mxCell id="pFZr7VpKerrp3s3yPMJf-14" value="" style="strokeWidth=2;html=1;shape=mxgraph.flowchart.annotation_2;align=left;labelPosition=right;pointerEvents=1;direction=west;" parent="1" vertex="1">
          <mxGeometry x="500" y="140" width="50" height="100" as="geometry" />
        </mxCell>
        <mxCell id="pFZr7VpKerrp3s3yPMJf-15" value="750L" style="text;html=1;align=center;verticalAlign=middle;whiteSpace=wrap;rounded=0;fillColor=none;fillStyle=hatch;gradientColor=default;strokeColor=none;perimeterSpacing=0;glass=0;shadow=1;fontStyle=1;fontSize=20;" parent="1" vertex="1">
          <mxGeometry x="550" y="170" width="70" height="40" as="geometry" />
        </mxCell>
        <mxCell id="SxQQ4oSj7Uny4InST8V0-1" value="" style="html=1;points=[[0,0,0,0,5],[0,1,0,0,-5],[1,0,0,0,5],[1,1,0,0,-5]];perimeter=orthogonalPerimeter;outlineConnect=0;targetShapes=umlLifeline;portConstraint=eastwest;newEdgeStyle={&quot;curved&quot;:0,&quot;rounded&quot;:0};fillColor=#000000;" parent="1" vertex="1">
          <mxGeometry x="390" y="400" width="20" height="320" as="geometry" />
        </mxCell>
        <mxCell id="SxQQ4oSj7Uny4InST8V0-13" value="" style="ellipse;shape=doubleEllipse;whiteSpace=wrap;html=1;aspect=fixed;" parent="1" vertex="1">
          <mxGeometry x="360" y="320" width="80" height="80" as="geometry" />
        </mxCell>
        <mxCell id="SxQQ4oSj7Uny4InST8V0-14" value="Pump" style="text;html=1;strokeColor=none;fillColor=none;align=center;verticalAlign=middle;whiteSpace=wrap;rounded=0;glass=0;fontStyle=1;fontSize=16;" parent="1" vertex="1">
          <mxGeometry x="370" y="345" width="60" height="30" as="geometry" />
        </mxCell>
        <mxCell id="SxQQ4oSj7Uny4InST8V0-19" value="" style="endArrow=diamondThin;endFill=1;endSize=24;html=1;rounded=0;" parent="1" edge="1">
          <mxGeometry width="160" relative="1" as="geometry">
            <mxPoint x="560" y="139" as="sourcePoint" />
            <mxPoint x="470" y="139" as="targetPoint" />
          </mxGeometry>
        </mxCell>
        <mxCell id="SxQQ4oSj7Uny4InST8V0-22" value="" style="endArrow=diamondThin;endFill=1;endSize=24;html=1;rounded=0;" parent="1" edge="1">
          <mxGeometry width="160" relative="1" as="geometry">
            <mxPoint x="170" y="80" as="sourcePoint" />
            <mxPoint x="330" y="80" as="targetPoint" />
          </mxGeometry>
        </mxCell>
        <mxCell id="SxQQ4oSj7Uny4InST8V0-23" value="" style="endArrow=diamondThin;endFill=1;endSize=24;html=1;rounded=0;entryX=1;entryY=0.563;entryDx=0;entryDy=0;entryPerimeter=0;" parent="1" edge="1">
          <mxGeometry width="160" relative="1" as="geometry">
            <mxPoint x="670" y="720" as="sourcePoint" />
            <mxPoint x="550" y="720.1599999999999" as="targetPoint" />
          </mxGeometry>
        </mxCell>
        <mxCell id="SxQQ4oSj7Uny4InST8V0-24" value="" style="strokeWidth=2;html=1;shape=mxgraph.flowchart.annotation_2;align=left;labelPosition=right;pointerEvents=1;direction=west;" parent="1" vertex="1">
          <mxGeometry x="580" y="720" width="50" height="120" as="geometry" />
        </mxCell>
        <mxCell id="SxQQ4oSj7Uny4InST8V0-25" value="1000L" style="text;html=1;align=center;verticalAlign=middle;whiteSpace=wrap;rounded=0;fillColor=none;fillStyle=hatch;gradientColor=default;strokeColor=none;perimeterSpacing=0;glass=0;shadow=1;fontStyle=1;fontSize=20;" parent="1" vertex="1">
          <mxGeometry x="630" y="760" width="70" height="40" as="geometry" />
        </mxCell>
        <mxCell id="SxQQ4oSj7Uny4InST8V0-26" value="Input A" style="text;html=1;strokeColor=none;fillColor=none;align=center;verticalAlign=middle;whiteSpace=wrap;rounded=0;fontStyle=1" parent="1" vertex="1">
          <mxGeometry x="110" y="60" width="70" height="40" as="geometry" />
        </mxCell>
        <mxCell id="SxQQ4oSj7Uny4InST8V0-27" value="&lt;b&gt;Input B&lt;/b&gt;" style="text;html=1;strokeColor=none;fillColor=none;align=center;verticalAlign=middle;whiteSpace=wrap;rounded=0;" parent="1" vertex="1">
          <mxGeometry x="550" y="120" width="70" height="40" as="geometry" />
        </mxCell>
        <mxCell id="SxQQ4oSj7Uny4InST8V0-28" value="&lt;b&gt;Input C&lt;/b&gt;" style="text;html=1;strokeColor=none;fillColor=none;align=center;verticalAlign=middle;whiteSpace=wrap;rounded=0;" parent="1" vertex="1">
          <mxGeometry x="660" y="700" width="70" height="40" as="geometry" />
        </mxCell>
        <mxCell id="SxQQ4oSj7Uny4InST8V0-29" value="Overhead&lt;br&gt;Tank" style="text;html=1;strokeColor=none;fillColor=none;align=center;verticalAlign=middle;whiteSpace=wrap;rounded=0;" parent="1" vertex="1">
          <mxGeometry x="365" y="170" width="70" height="40" as="geometry" />
        </mxCell>
        <mxCell id="SxQQ4oSj7Uny4InST8V0-30" value="Underground&lt;br&gt;Storage" style="text;html=1;strokeColor=none;fillColor=none;align=center;verticalAlign=middle;whiteSpace=wrap;rounded=0;" parent="1" vertex="1">
          <mxGeometry x="290" y="640" width="70" height="40" as="geometry" />
        </mxCell>
        <mxCell id="SxQQ4oSj7Uny4InST8V0-32" value="" style="rounded=0;whiteSpace=wrap;html=1;fillColor=#0050ef;fontColor=#ffffff;strokeColor=#001DBC;" parent="1" vertex="1">
          <mxGeometry x="240" y="720" width="320" height="120" as="geometry" />
        </mxCell>
      </root>
    </mxGraphModel>
  </diagram>
</mxfile>
